<?xml version="1.0" encoding="UTF-8" standalone="no"?>
<!DOCTYPE svg PUBLIC "-//W3C//DTD SVG 1.1//EN" "http://www.w3.org/Graphics/SVG/1.1/DTD/svg11.dtd">
<svg width="100%" height="100%" viewBox="0 0 165 110" version="1.1" xmlns="http://www.w3.org/2000/svg" xmlns:xlink="http://www.w3.org/1999/xlink" xml:space="preserve" xmlns:serif="http://www.serif.com/" style="fill-rule:evenodd;clip-rule:evenodd;stroke-linejoin:round;stroke-miterlimit:2;">
    <g id="m" transform="matrix(1,0,0,1,-116.42,-1)">
        <path d="M118.8,33.1l2.8,-29.5c0.1,-1.1 0.7,-1.6 1.7,-1.6l2.5,0c0.9,0 1.6,0.4 1.9,1.3l10.2,24.5l10.2,-24.5c0.4,-0.9 1,-1.3 2,-1.3l2.4,0c1.1,0 1.7,0.5 1.8,1.6l2.8,29.5c0.1,1.2 -0.5,1.8 -1.6,1.8l-1.5,0c-1.1,0 -1.7,-0.5 -1.8,-1.6l-2,-23.7l-9.8,23.6c-0.4,0.9 -1,1.3 -2,1.3l-0.8,0c-1,0 -1.6,-0.4 -1.9,-1.3l-9.8,-23.6l-2.1,23.7c-0.1,1.1 -0.7,1.6 -1.8,1.6l-1.6,0c-1,0 -1.7,-0.6 -1.6,-1.8Z" style="fill:rgb(163,61,156);fill-rule:nonzero;"/>
    </g>
    <g transform="matrix(1,0,0,1,-116.42,-1)">
        <path d="M161.9,23.1c0,-6.8 5.5,-12.3 12.4,-12.3c6.9,0 12.5,5.5 12.5,12.3c0,6.8 -5.6,12.3 -12.5,12.3c-6.8,0 -12.4,-5.5 -12.4,-12.3Zm20.1,0c0,-4.5 -3.4,-8.1 -7.7,-8.1c-4.2,0 -7.6,3.6 -7.6,8.1c0,4.5 3.4,8 7.6,8c4.3,0.1 7.7,-3.5 7.7,-8Z" style="fill:rgb(163,61,156);fill-rule:nonzero;"/>
    </g>
    <g transform="matrix(1,0,0,1,-116.42,-1)">
        <path d="M192.2,33.2l0,-20.2c0,-1.1 0.7,-1.7 1.7,-1.7l1.4,0c1.1,0 1.7,0.6 1.7,1.7l0,2.9c1,-3.3 4,-5.1 7.8,-5.1c5.2,0 9,3.4 9,10.8l0,11.6c0,1.1 -0.7,1.7 -1.7,1.7l-1.4,0c-1.1,0 -1.7,-0.6 -1.7,-1.7l0,-11.6c0,-4.8 -2.2,-6.6 -4.7,-6.6c-2.4,0 -7.3,1.6 -7.3,8.8l0,9.4c0,1.1 -0.6,1.7 -1.7,1.7l-1.4,0c-1.1,0 -1.7,-0.6 -1.7,-1.7Z" style="fill:rgb(163,61,156);fill-rule:nonzero;"/>
    </g>
    <g id="e" transform="matrix(1,0,0,1,-116.42,-1)">
        <path d="M218.9,23.2c0,-6.9 5.4,-12.4 12.7,-12.4c5.9,0 11.3,3.5 12,11c0.1,1.1 -0.5,1.7 -1.6,1.7l-18.2,0c-0.1,4.4 3.5,7.6 8.6,7.6c2.3,0 4.4,-0.6 6.4,-2c0.9,-0.6 1.6,-0.5 2.4,0.2l0.3,0.4c0.8,0.8 0.8,1.8 -0.3,2.7c-2.7,2.2 -5.9,2.9 -8.8,2.9c-8.5,0.1 -13.5,-5.4 -13.5,-12.1Zm19.8,-3.2c-1.2,-4.2 -4.5,-5.1 -7.1,-5.1c-2.7,0 -6.1,1.1 -7.6,5.1l14.7,0Z" style="fill:rgb(163,61,156);fill-rule:nonzero;"/>
    </g>
    <g transform="matrix(1,0,0,1,-116.42,-1)">
        <path d="M251.3,43.4l3.6,-9.4l-9,-20.7c-0.5,-1.2 0,-2 1.3,-2l1.9,0c1,0 1.6,0.4 1.9,1.3l6.5,15.9l6,-15.9c0.3,-0.9 1,-1.4 2,-1.4l1.9,0c1.3,0 1.8,0.8 1.3,2l-13.1,30.8c-0.4,0.9 -1,1.3 -2,1.3l-1.1,0c-1.2,0.1 -1.7,-0.7 -1.2,-1.9Z" style="fill:rgb(163,61,156);fill-rule:nonzero;"/>
    </g>
    <g transform="matrix(1,0,0,1,-116.42,-1)">
        <path d="M117.6,64.5c-0.5,-1 0.1,-1.8 1.1,-2.1l1.4,-0.3c1,-0.2 1.6,0.1 2.1,1.1c1.2,2 3.7,3.6 7,3.6c4.2,0 6.8,-2.1 6.8,-4.9c0,-2.5 -2.1,-4 -4.7,-5l-4.9,-1.6c-6.2,-2.1 -7.7,-5.8 -7.7,-8.8c0,-5.7 5,-9.2 10.7,-9.2c5.2,0 8.8,2.5 10.3,6.2c0.4,1 -0.1,1.8 -1.1,2.1l-1.2,0.4c-1,0.3 -1.7,-0.1 -2.2,-1.1c-1.1,-2.2 -3.1,-3.2 -5.8,-3.2c-3.1,0 -5.7,1.7 -5.7,4.6c0,1.4 0.4,3.1 4.2,4.6l4.9,1.8c5.5,1.7 8.1,5.4 8.1,8.9c0,5.9 -4.7,9.6 -11.6,9.6c-5.9,0 -10,-2.8 -11.7,-6.7Z" style="fill:rgb(163,61,156);fill-rule:nonzero;"/>
    </g>
    <g transform="matrix(1,0,0,1,-116.42,-1)">
        <path d="M145.9,60.4l0,-11.6c0,-1.1 0.6,-1.7 1.7,-1.7l1.4,0c1.1,0 1.7,0.6 1.7,1.7l0,11.6c0,4.8 2.2,6.6 4.7,6.6c2.4,0 7.3,-1.7 7.3,-8.8l0,-9.4c0,-1.1 0.6,-1.7 1.7,-1.7l1.4,0c1.1,0 1.7,0.6 1.7,1.7l0,20.2c0,1.1 -0.7,1.7 -1.7,1.7l-1.4,0c-1.1,0 -1.7,-0.6 -1.7,-1.7l0,-2.9c-1,3.3 -4,5.1 -7.8,5.1c-5.3,0 -9,-3.4 -9,-10.8Z" style="fill:rgb(163,61,156);fill-rule:nonzero;"/>
    </g>
    <g transform="matrix(1,0,0,1,-116.42,-1)">
        <path d="M174.6,79.5l0,-30.7c0,-1.1 0.7,-1.7 1.7,-1.7l1.4,0c1.1,0 1.7,0.6 1.7,1.7l0,2c2.2,-3.1 5.3,-4.2 8.5,-4.2c7,0 11.7,5.5 11.7,12.3c0,6.8 -4.7,12.3 -11.7,12.3c-3.1,0 -6.3,-1.1 -8.5,-4.2l0,12.5c0,1.1 -0.6,1.7 -1.7,1.7l-1.4,0c-1.1,0 -1.7,-0.6 -1.7,-1.7Zm20.1,-20.6c0,-4.4 -2.7,-8.1 -7.5,-8.1c-4.6,0 -7.8,3.4 -7.8,8.1c0,4.7 3.2,8.1 7.8,8.1c4.8,0 7.5,-3.7 7.5,-8.1Z" style="fill:rgb(163,61,156);fill-rule:nonzero;"/>
    </g>
    <g transform="matrix(1,0,0,1,-116.42,-1)">
        <path d="M203.1,59c0,-6.9 5.4,-12.4 12.7,-12.4c5.9,0 11.3,3.5 12,11c0.1,1.1 -0.5,1.7 -1.6,1.7l-18.2,0c-0.1,4.4 3.5,7.6 8.6,7.6c2.3,0 4.4,-0.6 6.4,-2c0.9,-0.6 1.6,-0.5 2.4,0.2l0.3,0.4c0.8,0.8 0.8,1.8 -0.3,2.7c-2.7,2.2 -5.9,2.9 -8.8,2.9c-8.4,0.1 -13.5,-5.4 -13.5,-12.1Zm19.9,-3.2c-1.2,-4.2 -4.5,-5.1 -7.1,-5.1c-2.7,0 -6.1,1.1 -7.6,5.1l14.7,0Z" style="fill:rgb(163,61,156);fill-rule:nonzero;"/>
    </g>
    <g id="r" transform="matrix(1,0,0,1,-116.42,-1)">
        <path d="M232.9,69l0,-20.2c0,-1.1 0.7,-1.7 1.7,-1.7l1.4,0c1.1,0 1.7,0.6 1.7,1.7l0,3.6c0.8,-3.8 3.5,-5.8 6.3,-5.8l1,0c1,0.1 1.1,0.9 1.1,1.9l0,1.4c0,1.2 -0.5,1.6 -1.3,1.5c-0.4,-0.1 -0.8,-0.1 -1.3,-0.1c-1.7,0 -5.9,0.8 -5.9,10.5l0,7.2c0,1.1 -0.6,1.7 -1.7,1.7l-1.4,0c-0.9,0 -1.6,-0.6 -1.6,-1.7Z" style="fill:rgb(163,61,156);fill-rule:nonzero;"/>
    </g>
    <g transform="matrix(1,0,0,1,-116.42,-1)">
        <path d="M118.4,107.6l2.8,-29.5c0.1,-1.1 0.7,-1.6 1.7,-1.6l2.5,0c0.9,0 1.6,0.4 1.9,1.3l10.2,24.5l10.2,-24.5c0.4,-0.9 1,-1.3 2,-1.3l2.4,0c1.1,0 1.7,0.5 1.8,1.6l2.8,29.5c0.1,1.2 -0.5,1.8 -1.6,1.8l-1.6,0c-1.1,0 -1.7,-0.5 -1.8,-1.6l-2,-23.7l-9.8,23.6c-0.4,0.9 -1,1.3 -2,1.3l-0.8,0c-1,0 -1.6,-0.4 -1.9,-1.3l-9.8,-23.6l-2.1,23.7c-0.1,1.1 -0.7,1.6 -1.8,1.6l-1.6,0c-0.9,0 -1.6,-0.6 -1.5,-1.8Z" style="fill:rgb(163,61,156);fill-rule:nonzero;"/>
    </g>
    <g transform="matrix(1,0,0,1,-116.42,-1)">
        <path d="M161.6,97.6c0,-6.8 4.7,-12.3 11.7,-12.3c3.1,0 6.2,1.1 8.4,4.2l0,-2c0,-1.1 0.7,-1.7 1.7,-1.7l1.4,0c1.1,0 1.7,0.6 1.7,1.7l0,20.2c0,1.1 -0.6,1.7 -1.7,1.7l-1.4,0c-1.1,0 -1.7,-0.6 -1.7,-1.7l0,-2c-2.2,3.1 -5.3,4.2 -8.4,4.2c-7.1,0 -11.7,-5.5 -11.7,-12.3Zm20.1,0c0,-4.7 -3.2,-8.1 -7.8,-8.1c-4.7,0 -7.5,3.7 -7.5,8.1c0,4.4 2.7,8.1 7.5,8.1c4.7,0 7.8,-3.4 7.8,-8.1Z" style="fill:rgb(163,61,156);fill-rule:nonzero;"/>
    </g>
    <g transform="matrix(1,0,0,1,-116.42,-1)">
        <path d="M193.6,107.7l0,-20.1c0,-1.1 0.7,-1.7 1.7,-1.7l1.4,0c1.1,0 1.7,0.6 1.7,1.7l0,3.6c0.8,-3.8 3.5,-5.8 6.3,-5.8l1,0c1,0.1 1.1,0.9 1.1,1.9l0,1.4c0,1.2 -0.5,1.6 -1.3,1.5c-0.4,-0.1 -0.8,-0.1 -1.3,-0.1c-1.7,0 -5.9,0.8 -5.9,10.5l0,7.3c0,1.1 -0.6,1.7 -1.7,1.7l-1.4,0c-0.9,-0.2 -1.6,-0.8 -1.6,-1.9Z" style="fill:rgb(163,61,156);fill-rule:nonzero;"/>
    </g>
    <g transform="matrix(1,0,0,1,-116.42,-1)">
        <path d="M220.4,104.9l-4.6,-7.5l0,10.3c0,1.1 -0.6,1.7 -1.7,1.7l-1.4,0c-1.1,0 -1.7,-0.6 -1.7,-1.7l0,-30.6c0,-1.1 0.7,-1.7 1.7,-1.7l1.4,0c1.1,0 1.7,0.6 1.7,1.7l0,18.6l7.2,-8.9c0.5,-0.7 1.2,-1 2.1,-1l1.8,0c1.5,0 1.9,0.9 1,2.1l-7.2,8.7l3.9,6c1.4,1.9 2,3.1 4.1,3.1c0.4,0 1.3,0 2.1,-0.4c0.7,-0.2 1,-0.1 1.4,0.4l0.8,1.5c0.2,0.6 0,1.4 -1.2,1.9c-1.6,0.8 -3.2,0.8 -3.7,0.8c-4.7,0 -6.3,-2.9 -7.7,-5Z" style="fill:rgb(163,61,156);fill-rule:nonzero;"/>
    </g>
    <g transform="matrix(1,0,0,1,-116.42,-1)">
        <path d="M233.6,97.7c0,-6.9 5.4,-12.4 12.7,-12.4c5.9,0 11.3,3.5 12,11c0.1,1.1 -0.5,1.7 -1.6,1.7l-18.2,0c-0.1,4.4 3.5,7.6 8.6,7.6c2.3,0 4.4,-0.6 6.4,-2c0.9,-0.6 1.6,-0.5 2.4,0.2l0.3,0.4c0.8,0.8 0.8,1.8 -0.3,2.7c-2.7,2.2 -5.9,2.9 -8.8,2.9c-8.4,0.1 -13.5,-5.4 -13.5,-12.1Zm19.9,-3.1c-1.2,-4.2 -4.5,-5.1 -7.1,-5.1c-2.7,0 -6.1,1.1 -7.6,5.1l14.7,0Z" style="fill:rgb(163,61,156);fill-rule:nonzero;"/>
    </g>
    <g transform="matrix(1,0,0,1,-116.42,-1)">
        <path d="M264.4,101.9l0,-12.3l-2.9,0c-0.6,0 -0.9,-0.4 -0.9,-1l0,-1.8c0,-0.6 0.3,-0.9 0.9,-0.9l3,0l0.8,-5.4c0.1,-0.9 0.7,-1.4 1.5,-1.4l1,0c0.9,0 1.4,0.6 1.4,1.5l0,5.3l6.4,0c0.6,0 0.9,0.3 0.9,0.9l0,1.8c0,0.6 -0.3,1 -0.9,1l-6.4,0l0,12.6c0,2.5 1.2,3.5 2.7,3.5c1.5,0 2.8,-0.8 2.8,-2.5c0,-0.2 0,-0.5 -0.1,-0.9c-0.1,-0.7 0.2,-1.1 0.8,-1.1l2.2,0c0.6,0 1,0.2 1.1,0.8c0.2,0.8 0.2,1.7 0.2,1.7c0,3.5 -2.5,6.1 -7,6.1c-3.8,0.1 -7.5,-1.8 -7.5,-7.9Z" style="fill:rgb(163,61,156);fill-rule:nonzero;"/>
    </g>
</svg>
